<svg id="visual" viewBox="0 0 960 540" width="960" height="540" xmlns="http://www.w3.org/2000/svg" xmlns:xlink="http://www.w3.org/1999/xlink" version="1.1"><rect x="0" y="0" width="960" height="540" fill="#FFF"></rect><defs><linearGradient id="grad1_0" x1="43.8%" y1="100%" x2="100%" y2="0%"><stop offset="14.444444444444446%" stop-color="#ffffff" stop-opacity="1"></stop><stop offset="85.55555555555554%" stop-color="#ffffff" stop-opacity="1"></stop></linearGradient></defs><defs><linearGradient id="grad2_0" x1="0%" y1="100%" x2="56.3%" y2="0%"><stop offset="14.444444444444446%" stop-color="#ffffff" stop-opacity="1"></stop><stop offset="85.55555555555554%" stop-color="#ffffff" stop-opacity="1"></stop></linearGradient></defs><g transform="translate(960, 540)"><path d="M-270 0C-258.6 -44.4 -247.1 -88.8 -226 -130.5C-205 -172.2 -174.3 -211 -135 -233.8C-95.7 -256.6 -47.9 -263.3 0 -270L0 0Z" fill="#f7f7f7"></path></g><g transform="translate(0, 0)"><path d="M270 0C265.2 51.1 260.3 102.2 233.8 135C207.3 167.8 159.1 182.3 116.5 201.8C73.9 221.2 37 245.6 0 270L0 0Z" fill="#f7f7f7"></path></g></svg>